<svg width="160" height="158" viewBox="0 0 160 158" fill="none" xmlns="http://www.w3.org/2000/svg">
<path fill-rule="evenodd" clip-rule="evenodd" d="M26.5566 79.1061C26.5566 108.6 50.673 132.515 80.4298 132.515C110.187 132.515 134.303 108.6 134.303 79.1062C134.303 49.6127 110.187 25.6971 80.4299 25.6971C50.673 25.6971 26.5566 49.6126 26.5566 79.1061ZM25.9873 79.1061C25.9873 108.917 50.362 133.083 80.4298 133.083C110.498 133.083 134.872 108.917 134.872 79.1062C134.872 49.2954 110.498 25.1289 80.4299 25.1289C50.3621 25.1289 25.9873 49.2953 25.9873 79.1061Z" fill="#F5EFE5"/>
<path d="M4.26279 49.2198L7.94017 46.9506L3.65162 47.1004L0 57.2165L16.2371 63.0439L19.5177 53.9558L14.7696 48.9267C17.0434 52.672 18.5066 56.3902 16.7149 60.8404L8.98298 58.0654L11.5467 50.9631L11.289 50.8706L8.72525 57.9729L1.06359 55.2231C2.22082 51.9439 2.79241 50.4338 4.26279 49.2198Z" fill="#E9DFCE"/>
<path d="M28.4543 38.4745L18.9747 40.3857L17.2684 32.9039L17.0585 33.2416L18.7004 40.4499L11.6922 41.8731L10.0653 44.49L19.2152 42.6378L21.0019 50.4615L21.1987 50.1449L19.4764 42.5948L26.8274 41.0914L28.4543 38.4745Z" fill="#E9DFCE"/>
<path d="M23.1194 26.7145C24.6887 15.1086 38.9745 26.0835 33.4941 31.7829C32.3394 32.9837 30.5765 33.7407 29.4082 32.6237L23.1194 26.7145ZM34.862 40.693L35.0169 38.0204L30.038 33.2603C31.6574 34.0517 33.6738 31.9548 33.6738 31.9548C36.3279 29.1947 34.4744 23.9827 34.4744 23.9827C32.0974 18.167 23.6314 19.2577 22.9217 26.5254L21.5197 25.185L21.5822 29.8199L21.7946 28.1998L34.862 40.693Z" fill="#E9DFCE"/>
<path d="M43.7024 22.3293C42.0176 20.0786 39.7507 16.8414 38.0141 14.2055L37.6221 13.6305C36.1523 11.4743 34.2657 9.06008 34.3503 6.18061C33.3322 10.4734 35.0844 13.3088 36.3443 15.157L36.4283 15.2802L41.8663 23.2134C43.0981 25.0206 44.2983 24.8376 46.3577 23.4418C45.4631 23.8079 44.5275 23.4513 43.7024 22.3293Z" fill="#E9DFCE"/>
<path d="M53.5568 6.25033C50.0642 6.06272 46.6676 9.00066 46.5444 12.5104C46.417 16.0756 49.6476 19.1054 53.1863 19.2742C56.6695 19.4388 60.0816 16.7359 60.186 13.1802C60.3323 9.66099 57.0631 6.40555 53.5568 6.25033ZM52.6796 18.8904C50.2094 18.7694 48.404 16.5274 48.6344 12.4912C48.9322 8.15942 51.6993 6.44318 54.1139 6.55996C56.5611 6.69034 58.6638 9.13322 58.1327 13.1577C57.6877 16.9325 55.0942 19.0072 52.6796 18.8904Z" fill="#E9DFCE"/>
<path d="M70.9635 3.39775L71.7017 1.60014C71.1826 1.66808 70.7704 1.7673 70.7704 1.7673C67.8049 2.29957 66.3698 5.28191 66.4815 6.32147L65.8198 2.65588L63.8102 3.0166L64.3572 6.04681L65.7709 14.0177C65.8635 14.5309 65.7851 14.7973 65.6729 15.2968L69.0794 14.6853C68.6074 14.5935 67.9638 14.5324 67.805 13.6526L66.5742 6.83465C66.4953 6.11717 66.779 4.32543 70.4287 3.51896C70.4287 3.51896 70.6738 3.47497 70.9635 3.39775Z" fill="#E9DFCE"/>
<path d="M88.7372 10.189C87.4995 12.3116 85.0781 13.2544 83.6345 13.2093C78.4824 13.0483 77.061 8.3335 77.8112 5.07777L85.0291 5.30339C85.8761 5.30502 87.8976 5.19431 87.9476 3.60597C87.9538 3.40743 87.9469 2.04089 85.7233 1.4497C83.6972 0.914368 82.2963 1.09416 81.6196 1.22206C77.5797 2.13916 76.0688 5.81826 76.0688 5.81826C74.6677 9.17785 76.9827 13.9951 81.5873 14.139C83.0308 14.1841 84.5585 13.9338 86.209 12.942C88.3131 11.7905 88.8118 10.1913 88.8118 10.1913L88.7372 10.189ZM78.8194 3.12191C79.9823 1.79194 82.9178 1.13843 84.7229 2.36244C85.7962 3.09157 86.3607 4.94753 84.6418 4.94349L77.8407 4.92964C78.0127 4.21459 78.3558 3.60426 78.8194 3.12191Z" fill="#E9DFCE"/>
<path d="M106.044 0.0223555C106.432 0.761206 107.273 2.79333 106.904 3.55342L100.63 16.4974L100.787 16.573L107.194 3.52734L110.777 15.7063L123.503 8.79493L116.145 23.9745L118.14 24.9361L125.65 9.4436L123.61 8.46034L112.676 14.4704L108.947 1.39385L106.055 0L106.044 0.0223555Z" fill="#E9DFCE"/>
<path d="M133.679 23.1276C132.096 20.0178 127.846 18.5537 124.736 20.2022C121.576 21.8747 120.56 26.1794 122.182 29.3196C123.781 32.4098 127.835 34.0048 130.975 32.317C134.105 30.6838 135.298 26.233 133.679 23.1276ZM122.262 28.6901C121.132 26.4965 122.177 23.8164 125.798 21.9974C129.709 20.0886 132.583 21.62 133.689 23.7635C134.799 25.9419 133.729 28.9791 129.968 30.5327C126.467 32.0358 123.368 30.8336 122.262 28.6901Z" fill="#E9DFCE"/>
<path d="M142.759 35.5172L144.689 35.2558C144.37 34.8416 144.078 34.5352 144.078 34.5352C142.133 32.2406 138.825 32.4925 137.978 33.1087L140.831 30.7045L139.513 29.1495L137.155 31.137L130.939 36.3432C130.539 36.6798 130.269 36.7453 129.779 36.8981L132.013 39.5341C131.857 39.0805 131.588 38.4942 132.273 37.9172L137.579 33.4453C138.163 33.0184 139.861 32.3676 142.386 35.116C142.386 35.116 142.547 35.3057 142.759 35.5172Z" fill="#E9DFCE"/>
<path d="M145.13 53.4335C142.668 53.4261 140.638 51.8065 139.956 50.5374C137.52 46.0078 140.904 42.4231 144.107 41.443L147.52 47.7887C147.942 48.521 149.049 50.2112 150.453 49.4602C150.629 49.3663 151.812 48.6771 151.214 46.4613C150.666 44.444 149.809 43.3243 149.36 42.8039C146.543 39.7738 142.592 40.3086 142.592 40.3086C138.974 40.7785 135.947 45.1862 138.125 49.2344C138.807 50.5035 139.789 51.6975 141.475 52.6269C143.527 53.8681 145.166 53.4992 145.166 53.4992L145.13 53.4335ZM146.309 41.3357C148.046 41.6749 150.081 43.883 149.921 46.0538C149.824 47.3452 148.494 48.7607 147.638 47.2743L144.25 41.3944C144.957 41.1854 145.659 41.1765 146.309 41.3357Z" fill="#E9DFCE"/>
<path d="M153.266 78.121L152.607 69.1815L152.26 69.207L152.919 78.1465L153.266 78.121Z" fill="#E9DFCE"/>
<path d="M155.737 108.78L152.06 111.049L156.348 110.9L160 100.784L143.763 94.9561L140.482 104.044L145.23 109.073C142.957 105.328 141.493 101.61 143.285 97.1596L151.017 99.9346L148.453 107.037L148.711 107.129L151.275 100.027L158.936 102.777C157.779 106.056 157.208 107.566 155.737 108.78Z" fill="#E9DFCE"/>
<path d="M130.843 119.671L140.323 117.76L142.029 125.242L142.239 124.904L140.597 117.696L147.605 116.272L149.232 113.656L140.082 115.508L138.295 107.684L138.099 108.001L139.821 115.551L132.47 117.054L130.843 119.671Z" fill="#E9DFCE"/>
<path d="M135.732 131.471C134.163 143.077 119.877 132.102 125.358 126.403C126.512 125.202 128.275 124.445 129.443 125.562L135.732 131.471ZM123.99 117.493L123.835 120.166L128.814 124.926C127.194 124.134 125.178 126.231 125.178 126.231C122.524 128.991 124.377 134.203 124.377 134.203C126.754 140.019 135.22 138.928 135.93 131.66L137.332 133.001L137.269 128.366L137.057 129.986L123.99 117.493Z" fill="#E9DFCE"/>
<path d="M117.247 135.96C118.932 138.211 121.199 141.448 122.936 144.084L123.328 144.659C124.798 146.815 126.684 149.229 126.6 152.109C127.618 147.816 125.865 144.981 124.606 143.132L124.522 143.009L119.084 135.076C117.852 133.269 116.652 133.452 114.592 134.848C115.487 134.481 116.422 134.838 117.247 135.96Z" fill="#E9DFCE"/>
<path d="M107.687 151.635C111.18 151.823 114.577 148.885 114.7 145.375C114.827 141.81 111.597 138.78 108.058 138.611C104.575 138.446 101.163 141.149 101.058 144.705C100.912 148.224 104.181 151.48 107.687 151.635ZM108.565 138.995C111.035 139.116 112.84 141.358 112.61 145.394C112.312 149.726 109.545 151.442 107.13 151.325C104.683 151.195 102.58 148.752 103.112 144.728C103.557 140.953 106.15 138.878 108.565 138.995Z" fill="#E9DFCE"/>
<path d="M89.0367 154.602L88.2986 156.4C88.8176 156.332 89.2299 156.233 89.2299 156.233C92.1953 155.7 93.6304 152.718 93.5187 151.679L94.1804 155.344L96.1901 154.983L95.643 151.953L94.2293 143.982C94.1367 143.469 94.2151 143.203 94.3274 142.703L90.9208 143.315C91.3928 143.407 92.0364 143.468 92.1952 144.347L93.426 151.165C93.505 151.883 93.2212 153.675 89.5715 154.481C89.5715 154.481 89.3264 154.525 89.0367 154.602Z" fill="#E9DFCE"/>
<path d="M71.2626 147.811C72.5003 145.688 74.9217 144.746 76.3653 144.791C81.5174 144.952 82.9388 149.666 82.1886 152.922L74.9707 152.697C74.1237 152.695 72.1022 152.806 72.0522 154.394C72.046 154.593 72.0529 155.959 74.2765 156.55C76.3026 157.086 77.7035 156.906 78.3802 156.778C82.4201 155.861 83.931 152.182 83.931 152.182C85.3321 148.822 83.0171 144.005 78.4125 143.861C76.969 143.816 75.4413 144.066 73.7908 145.058C71.6867 146.21 71.188 147.809 71.188 147.809L71.2626 147.811ZM81.1804 154.878C80.0175 156.208 77.082 156.862 75.2769 155.638C74.2036 154.908 73.6391 153.052 75.358 153.057L82.1591 153.07C81.9871 153.785 81.644 154.396 81.1804 154.878Z" fill="#E9DFCE"/>
<path d="M53.9563 157.978C53.5677 157.239 52.7273 155.207 53.0957 154.447L59.3699 141.503L59.2129 141.427L52.8065 154.473L49.2232 142.294L36.4972 149.205L43.855 134.026L41.8596 133.064L34.3501 148.556L36.3904 149.54L47.3243 143.53L51.0532 156.606L53.9455 158L53.9563 157.978Z" fill="#E9DFCE"/>
<path d="M25.84 134.987C27.4234 138.097 31.6734 139.561 34.7833 137.913C37.9434 136.24 38.9596 131.935 37.3368 128.795C35.7382 125.705 31.6846 124.11 28.5442 125.798C25.4146 127.431 24.2217 131.882 25.84 134.987ZM37.2569 129.425C38.3869 131.618 37.3423 134.298 33.7216 136.117C29.8104 138.026 26.9363 136.495 25.8304 134.351C24.7201 132.173 25.7904 129.136 29.5513 127.582C33.0524 126.079 36.151 127.281 37.2569 129.425Z" fill="#E9DFCE"/>
<path d="M16.6043 121.826L14.674 122.088C14.9925 122.502 15.2848 122.808 15.2848 122.808C17.2298 125.103 20.5376 124.851 21.3846 124.235L18.5318 126.639L19.85 128.194L22.2083 126.207L28.4244 121C28.8238 120.664 29.0943 120.598 29.5843 120.446L27.3499 117.81C27.5061 118.263 27.7749 118.849 27.0902 119.426L21.784 123.898C21.2003 124.325 19.5023 124.976 16.977 122.228C16.977 122.228 16.8162 122.038 16.6043 121.826Z" fill="#E9DFCE"/>
<path d="M14.5201 104.243C16.9825 104.251 19.0121 105.87 19.6947 107.139C22.1309 111.669 18.7467 115.254 15.5439 116.234L12.1309 109.888C11.7088 109.156 10.6019 107.465 9.19743 108.216C9.02186 108.31 7.83843 109 8.4368 111.215C8.9849 113.233 9.84147 114.352 10.2909 114.873C13.1074 117.903 17.0582 117.368 17.0582 117.368C20.6767 116.898 23.703 112.49 21.5258 108.442C20.8432 107.173 19.8619 105.979 18.1752 105.05C16.1231 103.809 14.4848 104.178 14.4848 104.178L14.5201 104.243ZM13.3411 116.341C11.6045 116.002 9.56919 113.794 9.7297 111.623C9.82632 110.331 11.156 108.916 12.012 110.402L15.4005 116.282C14.6935 116.491 13.9918 116.5 13.3411 116.341Z" fill="#E9DFCE"/>
<path d="M6.73338 79.879L7.39246 88.8185L7.74014 88.793L7.08106 79.8535L6.73338 79.879Z" fill="#E9DFCE"/>
</svg>
